<svg width="120" height="20" viewBox="0 0 120 20" fill="none" xmlns="http://www.w3.org/2000/svg">
<path d="M18.4767 0L11.9217 9.43615L6.48287 1.63827V11.0271L10.8564 17.1308H12.9615L17.3329 11.0422V19.4764H22.6911V0H18.4767Z" fill="#6912AA"/>
<path d="M5.30513 5.11904H0V19.442H5.30513V5.11904Z" fill="#6912AA"/>
<path d="M5.30513 0.0429991H0V3.62482H5.30513V0.0429991Z" fill="#FED518"/>
<path d="M31.2557 16.5547H27.7862V2.95834H31.2557V16.5547Z" fill="black"/>
<path d="M33.0552 16.5547V2.95834H36.4505V4.85245C37.1656 3.53238 38.7635 2.57995 40.6585 2.57995C42.0403 2.55338 43.3762 3.08209 44.3743 4.05052C45.3822 5.02229 45.9 6.41547 45.9 8.23863V16.5547H42.4411V9.19106C42.4411 7.02175 41.3079 5.82423 39.6103 5.82423C37.7662 5.82423 36.5354 7.24535 36.5354 9.26416V16.5547H33.0552Z" fill="black"/>
<path d="M60.7374 10.9841H50.6746C51.1648 12.904 52.4699 13.8758 54.5856 13.8758C56.1265 13.8341 57.6259 13.36 58.9167 12.5063L60.2939 14.9723C58.5937 16.2215 56.5392 16.8779 54.4392 16.8427C52.0752 16.8427 50.2799 16.144 49.0258 14.7745C47.7717 13.405 47.1563 11.7087 47.1563 9.7393C47.1563 7.66889 47.7929 5.97473 49.1001 4.62885C50.4073 3.28298 52.0709 2.61005 54.1421 2.61005C56.0859 2.61005 57.7114 3.23353 58.9655 4.45471C60.2196 5.67588 60.8605 7.3206 60.8605 9.44045C60.8524 9.95716 60.8113 10.4728 60.7374 10.9841ZM50.6746 8.36762H57.4885C57.1681 6.59821 55.914 5.52538 54.1421 5.52538C52.3702 5.52538 51.0927 6.59821 50.6746 8.36762Z" fill="black"/>
<path d="M82.5139 4.10426C83.5474 5.12764 84.063 6.52296 84.063 8.34182V16.5547H80.5935V8.99111C80.5935 6.9207 79.5112 5.82423 77.9133 5.82423C76.1647 5.82423 74.9594 7.097 74.9594 9.09001V16.5547H71.492V9.02981C71.492 7.011 70.431 5.83928 68.7842 5.83928C67.0866 5.83928 65.8558 7.11205 65.8558 9.13086V16.5547H62.3884V2.95834H65.7837V4.8933C66.1939 4.16946 66.7903 3.57198 67.5093 3.16458C68.2283 2.75717 69.043 2.55511 69.8665 2.57995C71.5408 2.57995 73.0899 3.40338 73.8029 4.97285C74.7875 3.48293 76.6061 2.57995 78.6009 2.57995C80.2009 2.57995 81.5038 3.08304 82.5139 4.10426Z" fill="black"/>
<path d="M87.609 4.6783C88.9628 3.2794 90.6853 2.57995 92.7762 2.57995C94.8671 2.57995 96.5888 3.27796 97.9413 4.674C98.6006 5.33347 99.1198 6.12268 99.4669 6.99305C99.8139 7.86343 99.9815 8.79655 99.9593 9.735C99.9593 11.7538 99.2951 13.448 97.9413 14.8196C96.5874 16.1913 94.8664 16.8879 92.7762 16.8879C90.686 16.8879 88.9565 16.1913 87.609 14.8196C86.2615 13.448 85.5909 11.7538 85.5909 9.735C85.5693 8.79727 85.7372 7.86496 86.0842 6.99537C86.4312 6.12578 86.9501 5.33727 87.609 4.6783ZM92.7762 13.6264C93.2679 13.6378 93.7564 13.5439 94.2099 13.3509C94.6633 13.1579 95.0714 12.8701 95.4075 12.5063C96.1126 11.7635 96.5013 10.7697 96.4898 9.7393C96.4979 9.23217 96.4064 8.72846 96.2206 8.25748C96.0348 7.78651 95.7584 7.35768 95.4075 6.99595C95.0717 6.63185 94.6636 6.34383 94.2101 6.15078C93.7566 5.95774 93.2679 5.86403 92.7762 5.87583C92.2803 5.86387 91.7875 5.95737 91.3295 6.15031C90.8715 6.34324 90.4585 6.63132 90.1172 6.99595C89.7692 7.35874 89.4961 7.78824 89.3139 8.2593C89.1317 8.73036 89.0441 9.23351 89.0562 9.7393C89.0365 10.7672 89.4178 11.7615 90.1172 12.5063C90.4589 12.8705 90.8719 13.1583 91.3298 13.3512C91.7877 13.5441 92.2804 13.6378 92.7762 13.6264Z" fill="black"/>
<path d="M101.825 16.5547V2.95834H105.22V4.85245C105.933 3.53238 107.531 2.57995 109.426 2.57995C110.808 2.55315 112.144 3.08189 113.142 4.05052C114.149 5.02229 114.667 6.41547 114.667 8.23863V16.5547H111.196V9.19106C111.196 7.02175 110.065 5.82423 108.367 5.82423C106.521 5.82423 105.29 7.24535 105.29 9.26416V16.5547H101.825Z" fill="black"/>
<path d="M120 16.5547H116.53V2.95834H120V16.5547Z" fill="black"/>
</svg>
