<svg width="1007" height="1106" viewBox="0 0 1007 1106" fill="none" xmlns="http://www.w3.org/2000/svg">
<path opacity="0.8" d="M313.626 840.46C269.027 801.434 234.113 752.574 211.639 697.739C189.165 642.903 179.748 583.594 184.131 524.494C188.513 465.394 206.575 408.122 236.892 357.202C267.208 306.281 308.947 263.106 358.814 231.086C408.681 199.065 465.31 179.076 524.227 172.698C583.145 166.32 642.739 173.727 698.302 194.334C753.867 214.942 803.879 248.185 844.39 291.438C884.9 334.691 914.801 386.771 931.729 443.563" stroke="#00ABAB" stroke-width="0.771841" stroke-dasharray="593.72 593.72"/>
<path opacity="0.8" d="M942.577 621.142C950.625 636.333 953.027 650.376 949.941 662.946C946.845 675.515 938.252 686.689 924.154 696.105C895.938 714.952 846.885 725.952 782.198 727.848C717.533 729.743 639.767 722.467 557.271 706.798C474.776 691.128 390.687 667.66 314.056 638.922C237.422 610.183 171.165 577.265 122.406 543.719C98.0269 526.947 78.4948 510.342 64.1956 494.349C49.8933 478.353 40.8471 462.993 37.4015 448.712C33.96 434.449 36.1665 421.518 43.7935 410.2C51.4306 398.867 64.5288 389.113 82.9346 381.281C119.752 365.614 176.256 358.297 246.402 360.157" stroke="#FED518" stroke-width="0.771841" stroke-dasharray="593.72 593.72"/>
<path opacity="0.8" d="M698.438 203.362C750.102 146.359 797.066 110.225 833.509 99.326C851.717 93.8809 866.839 94.8707 878.564 101.963C890.293 109.058 898.718 122.318 903.402 141.622C912.774 180.249 906.687 241.124 885.817 316.752C864.952 392.36 830.248 479.324 785.997 566.87C741.749 654.414 689.904 738.685 636.888 809.243C583.868 879.808 532.024 933.53 487.784 963.787C465.663 978.909 445.961 987.82 429.208 990.466C412.471 993.111 398.7 989.5 388.356 979.631C377.993 969.734 371.236 953.712 368.245 932.154C365.254 910.604 366.034 883.583 370.696 851.769" stroke="#6912AA" stroke-width="0.771841" stroke-dasharray="593.72 593.72"/>
<path opacity="0.8" d="M786.495 863.515C770.125 905.83 742.359 932.195 706.084 940.006C669.785 947.823 626.173 936.803 579.717 907.963C533.266 879.126 485.701 833.546 441.924 775.897C398.149 718.25 359.754 650.632 330.693 580.003C301.632 509.372 282.96 438.292 276.59 374.079C270.221 309.861 276.391 254.867 294.421 214.731C312.443 174.614 341.651 150.805 379.03 145.66C416.439 140.511 460.77 154.227 507.472 185.507" stroke="#EB7DA7" stroke-width="0.771841" stroke-dasharray="593.72 593.72"/>
</svg>
