<svg width="118" height="31" viewBox="0 0 118 31" fill="none" xmlns="http://www.w3.org/2000/svg">
<path d="M11.4027 24.9882L8.13913 27.365C7.99541 27.4752 7.83992 27.5306 7.67268 27.5313C7.50544 27.532 7.35532 27.4894 7.22232 27.4034C7.08932 27.3175 6.98189 27.205 6.90002 27.0661C6.81811 26.9266 6.79004 26.7651 6.81581 26.5816L7.38581 22.5792L4.10437 20.2103C3.95511 20.0979 3.85636 19.9635 3.8081 19.8071C3.75933 19.6513 3.75597 19.4949 3.798 19.3379C3.84002 19.1808 3.91215 19.049 4.01436 18.9425C4.11658 18.836 4.26332 18.7604 4.45461 18.7158L8.45003 18.0107L9.68338 14.1803C9.73803 14.0082 9.83451 13.8743 9.9728 13.7785C10.1105 13.6828 10.2555 13.6283 10.4077 13.615C10.5599 13.6017 10.7124 13.6302 10.8652 13.7005C11.0175 13.7708 11.1355 13.8859 11.2192 14.0459L13.0989 17.604L17.1561 17.6045C17.3522 17.6153 17.5099 17.6642 17.629 17.7514C17.7482 17.8385 17.8421 17.9558 17.9108 18.1032C17.9794 18.2505 18.0035 18.4051 17.9831 18.5669C17.9622 18.7294 17.888 18.8789 17.7605 19.0155L14.9403 21.9182L16.1966 25.7609C16.2539 25.9371 16.2543 26.101 16.1978 26.2526C16.1413 26.4037 16.0551 26.5331 15.939 26.6408C15.823 26.7486 15.6825 26.8166 15.5177 26.845C15.3529 26.8733 15.1901 26.8458 15.0295 26.7622L11.4027 24.9882Z" fill="#FFD700"/>
<path d="M35.3114 22.8964L32.0478 25.2733C31.9041 25.3834 31.7486 25.4388 31.5814 25.4395C31.4141 25.4402 31.264 25.3976 31.131 25.3116C30.998 25.2257 30.8906 25.1132 30.8087 24.9743C30.7268 24.8348 30.6987 24.6733 30.7245 24.4898L31.2945 20.4874L28.013 18.1185C27.8638 18.0061 27.765 17.8717 27.7168 17.7153C27.668 17.5595 27.6646 17.4031 27.7067 17.2461C27.7487 17.089 27.8208 16.9572 27.923 16.8507C28.0252 16.7442 28.172 16.6686 28.3633 16.624L32.3587 15.9189L33.5921 12.0885C33.6467 11.9164 33.7432 11.7825 33.8815 11.6867C34.0192 11.591 34.1642 11.5365 34.3164 11.5232C34.4686 11.5099 34.6211 11.5384 34.7739 11.6087C34.9262 11.679 35.0441 11.7941 35.1279 11.9541L37.0076 15.5122L41.0648 15.5127C41.2609 15.5235 41.4185 15.5724 41.5377 15.6596C41.6569 15.7467 41.7508 15.864 41.8194 16.0114C41.8881 16.1587 41.9122 16.3133 41.8918 16.4751C41.8709 16.6376 41.7967 16.7871 41.6692 16.9238L38.849 19.8264L40.1053 23.6691C40.1626 23.8453 40.163 24.0092 40.1065 24.1608C40.05 24.3119 39.9637 24.4413 39.8477 24.549C39.7316 24.6568 39.5912 24.7248 39.4264 24.7532C39.2616 24.7815 39.0988 24.754 38.9381 24.6704L35.3114 22.8964Z" fill="#FFD700"/>
<path d="M59.2201 20.8046L55.9565 23.1815C55.8128 23.2916 55.6573 23.3471 55.49 23.3477C55.3228 23.3484 55.1727 23.3058 55.0397 23.2198C54.9067 23.1339 54.7992 23.0214 54.7174 22.8825C54.6355 22.743 54.6074 22.5815 54.6332 22.398L55.2032 18.3956L51.9217 16.0267C51.7725 15.9143 51.6737 15.7799 51.6254 15.6235C51.5767 15.4677 51.5733 15.3113 51.6153 15.1543C51.6574 14.9972 51.7295 14.8654 51.8317 14.7589C51.9339 14.6524 52.0807 14.5768 52.272 14.5322L56.2674 13.8271L57.5007 9.99669C57.5554 9.82461 57.6518 9.69069 57.7901 9.59494C57.9279 9.49924 58.0728 9.44473 58.225 9.43141C58.3772 9.4181 58.5297 9.44658 58.6826 9.51686C58.8348 9.58719 58.9528 9.70235 59.0365 9.86233L60.9163 13.4204L64.9734 13.4209C65.1696 13.4317 65.3272 13.4806 65.4464 13.5678C65.5655 13.6549 65.6594 13.7722 65.7281 13.9196C65.7968 14.0669 65.8209 14.2215 65.8005 14.3833C65.7795 14.5458 65.7053 14.6953 65.5779 14.832L62.7576 17.7346L64.014 21.5773C64.0712 21.7535 64.0716 21.9174 64.0152 22.069C63.9587 22.2201 63.8724 22.3495 63.7564 22.4572C63.6403 22.565 63.4999 22.633 63.3351 22.6614C63.1702 22.6898 63.0075 22.6622 62.8468 22.5786L59.2201 20.8046Z" fill="#FFD700"/>
<path d="M83.1287 18.7128L79.8651 21.0897C79.7214 21.1998 79.5659 21.2553 79.3987 21.2559C79.2315 21.2566 79.0813 21.214 78.9483 21.128C78.8153 21.0421 78.7079 20.9296 78.626 20.7907C78.5441 20.6512 78.5161 20.4897 78.5418 20.3062L79.1118 16.3038L75.8304 13.9349C75.6811 13.8225 75.5824 13.6881 75.5341 13.5317C75.4853 13.3759 75.482 13.2195 75.524 13.0625C75.566 12.9054 75.6382 12.7736 75.7404 12.6671C75.8426 12.5606 75.9893 12.485 76.1806 12.4404L80.176 11.7353L81.4094 7.9049C81.464 7.73281 81.5605 7.59889 81.6988 7.50314C81.8366 7.40744 81.9815 7.35293 82.1337 7.33962C82.2859 7.3263 82.4384 7.35478 82.5912 7.42507C82.7435 7.4954 82.8615 7.61055 82.9452 7.77053L84.8249 11.3286L88.8821 11.3291C89.0782 11.3399 89.2359 11.3888 89.355 11.476C89.4742 11.5631 89.5681 11.6804 89.6368 11.8278C89.7054 11.9751 89.7295 12.1297 89.7091 12.2916C89.6882 12.454 89.614 12.6035 89.4865 12.7402L86.6663 15.6428L87.9227 19.4855C87.9799 19.6617 87.9803 19.8256 87.9239 19.9772C87.8674 20.1283 87.7811 20.2577 87.665 20.3654C87.549 20.4732 87.4086 20.5412 87.2437 20.5696C87.0789 20.598 86.9162 20.5704 86.7555 20.4868L83.1287 18.7128Z" fill="#FFD700"/>
<path d="M107.037 16.621L103.774 18.9979C103.63 19.108 103.475 19.1635 103.307 19.1641C103.14 19.1648 102.99 19.1222 102.857 19.0362C102.724 18.9503 102.617 18.8378 102.535 18.6989C102.453 18.5594 102.425 18.3979 102.45 18.2144L103.02 14.212L99.7391 11.8431C99.5898 11.7307 99.491 11.5963 99.4428 11.4399C99.394 11.2841 99.3907 11.1277 99.4327 10.9707C99.4747 10.8136 99.5468 10.6818 99.649 10.5753C99.7513 10.4688 99.898 10.3932 100.089 10.3486L104.085 9.6435L105.318 5.8131C105.373 5.64102 105.469 5.5071 105.607 5.41135C105.745 5.31564 105.89 5.26114 106.042 5.24782C106.195 5.2345 106.347 5.26299 106.5 5.33327C106.652 5.4036 106.77 5.51876 106.854 5.67873L108.734 9.23678L112.791 9.23734C112.987 9.24807 113.145 9.29701 113.264 9.38418C113.383 9.47135 113.477 9.58861 113.545 9.73596C113.614 9.88332 113.638 10.0379 113.618 10.1998C113.597 10.3622 113.523 10.5117 113.395 10.6484L110.575 13.551L111.831 17.3937C111.889 17.5699 111.889 17.7338 111.833 17.8854C111.776 18.0365 111.69 18.1659 111.574 18.2736C111.458 18.3814 111.317 18.4494 111.152 18.4778C110.988 18.5062 110.825 18.4786 110.664 18.395L107.037 16.621Z" fill="#FFD700"/>
</svg>
